# xmcd
#
# Track frame offsets:
#	150
#	11395
#	30540
#	63820
#	80057
#	96817
#	115182
#	131760
#	148787
#	161545
#	177765
#	192162
#	205217
#	230990
#	247380
#
# Disc length: 3541 seconds
#
# Revision: 1
# Processed by: cddbd v1.5PL3 Copyright (c) Steve Scherf et al.
# Submitted via: CDex 1.50Beta5
#
DISCID=d20dd30f
DTITLE=美空ひばり - 不死鳥/美空ひばり in TOKYO DOME Disc 2
DYEAR=1900
DGENRE=Folk
TTITLE0=お前に惚れた
TTITLE1=悲しい酒
TTITLE2=われとわが身を眠らす子守唄
TTITLE3=花蕾
TTITLE4=さんさ恋時雨
TTITLE5=裏窓
TTITLE6=NANGIやね
TTITLE7=暗夜行路
TTITLE8=KANPAI!!
TTITLE9=ひばりの佐渡情話
TTITLE10=涙
TTITLE11=ある女の詩
TTITLE12=愛燦燦
TTITLE13=人生一路
TTITLE14=黄昏
EXTD=
EXTT0=
EXTT1=
EXTT2=
EXTT3=
EXTT4=
EXTT5=
EXTT6=
EXTT7=
EXTT8=
EXTT9=
EXTT10=
EXTT11=
EXTT12=
EXTT13=
EXTT14=
PLAYORDER=
